<svg xmlns="http://www.w3.org/2000/svg" xmlns:xlink="http://www.w3.org/1999/xlink" width="500" zoomAndPan="magnify" viewBox="0 0 375 374.999991" height="500" preserveAspectRatio="xMidYMid meet" version="1.0"><defs><g/><clipPath id="e71742e3a7"><path d="M 161.046875 92.867188 L 324.546875 92.867188 L 324.546875 262.367188 L 161.046875 262.367188 Z M 161.046875 92.867188 " clip-rule="nonzero"/></clipPath></defs><g clip-path="url(#e71742e3a7)"><path fill="#7ed957" d="M 324.511719 130.433594 L 252.8125 144.613281 L 228.496094 92.878906 L 217.761719 149.023438 L 161.046875 156.164062 L 211.949219 170.652344 L 198.714844 163.367188 L 227.78125 159.707031 L 233.285156 130.933594 L 245.746094 157.449219 L 286.246094 148.417969 L 253.449219 173.835938 L 265.910156 200.347656 L 240.246094 186.222656 L 163.355469 262.46875 L 242.074219 200.757812 L 292.152344 228.320312 L 267.839844 176.585938 L 324.511719 130.433594 " fill-opacity="1" fill-rule="nonzero"/></g><g fill="#7ed957" fill-opacity="1"><g transform="translate(89.031677, 215.021569)"><g><path d="M 27.78125 -43.484375 L 27.78125 -15.578125 C 27.78125 -13.773438 27.664062 -12.046875 27.4375 -10.390625 C 27.21875 -8.734375 26.554688 -7.128906 25.453125 -5.578125 C 24.054688 -3.578125 22.347656 -2.078125 20.328125 -1.078125 C 18.304688 -0.078125 16.128906 0.421875 13.796875 0.421875 C 12.203125 0.421875 10.695312 0.15625 9.28125 -0.375 C 7.875 -0.90625 6.585938 -1.628906 5.421875 -2.546875 C 4.265625 -3.460938 3.253906 -4.546875 2.390625 -5.796875 C 1.535156 -7.046875 0.878906 -8.382812 0.421875 -9.8125 L 8.46875 -12.515625 C 8.789062 -11.328125 9.410156 -10.34375 10.328125 -9.5625 C 11.253906 -8.789062 12.328125 -8.40625 13.546875 -8.40625 C 14.984375 -8.40625 16.097656 -8.882812 16.890625 -9.84375 C 17.691406 -10.800781 18.195312 -11.894531 18.40625 -13.125 C 18.40625 -13.289062 18.410156 -13.863281 18.421875 -14.84375 C 18.441406 -15.820312 18.453125 -17.035156 18.453125 -18.484375 C 18.453125 -19.941406 18.453125 -21.578125 18.453125 -23.390625 C 18.453125 -25.210938 18.453125 -27.046875 18.453125 -28.890625 C 18.453125 -33.222656 18.4375 -38.085938 18.40625 -43.484375 Z M 27.78125 -43.484375 "/></g></g></g><g fill="#7ed957" fill-opacity="1"><g transform="translate(116.013541, 215.021569)"><g><path d="M 23.421875 -44.09375 C 26.367188 -44.09375 29.148438 -43.5 31.765625 -42.3125 C 34.378906 -41.125 36.65625 -39.507812 38.59375 -37.46875 C 40.539062 -35.425781 42.078125 -33.054688 43.203125 -30.359375 C 44.328125 -27.660156 44.890625 -24.773438 44.890625 -21.703125 C 44.890625 -18.679688 44.328125 -15.800781 43.203125 -13.0625 C 42.078125 -10.320312 40.539062 -7.929688 38.59375 -5.890625 C 36.65625 -3.847656 34.378906 -2.222656 31.765625 -1.015625 C 29.148438 0.191406 26.367188 0.796875 23.421875 0.796875 C 20.484375 0.796875 17.703125 0.191406 15.078125 -1.015625 C 12.460938 -2.222656 10.191406 -3.847656 8.265625 -5.890625 C 6.347656 -7.929688 4.828125 -10.320312 3.703125 -13.0625 C 2.585938 -15.800781 2.03125 -18.679688 2.03125 -21.703125 C 2.03125 -24.773438 2.585938 -27.660156 3.703125 -30.359375 C 4.828125 -33.054688 6.347656 -35.425781 8.265625 -37.46875 C 10.191406 -39.507812 12.460938 -41.125 15.078125 -42.3125 C 17.703125 -43.5 20.484375 -44.09375 23.421875 -44.09375 Z M 23.421875 -8.46875 C 25.097656 -8.46875 26.671875 -8.8125 28.140625 -9.5 C 29.617188 -10.195312 30.910156 -11.148438 32.015625 -12.359375 C 33.117188 -13.566406 33.988281 -14.96875 34.625 -16.5625 C 35.257812 -18.15625 35.578125 -19.867188 35.578125 -21.703125 C 35.578125 -23.546875 35.257812 -25.273438 34.625 -26.890625 C 33.988281 -28.503906 33.117188 -29.914062 32.015625 -31.125 C 30.910156 -32.332031 29.617188 -33.28125 28.140625 -33.96875 C 26.671875 -34.664062 25.097656 -35.015625 23.421875 -35.015625 C 21.742188 -35.015625 20.171875 -34.664062 18.703125 -33.96875 C 17.234375 -33.28125 15.945312 -32.332031 14.84375 -31.125 C 13.738281 -29.914062 12.867188 -28.503906 12.234375 -26.890625 C 11.597656 -25.273438 11.28125 -23.546875 11.28125 -21.703125 C 11.28125 -19.867188 11.597656 -18.15625 12.234375 -16.5625 C 12.867188 -14.96875 13.738281 -13.566406 14.84375 -12.359375 C 15.945312 -11.148438 17.234375 -10.195312 18.703125 -9.5 C 20.171875 -8.8125 21.742188 -8.46875 23.421875 -8.46875 Z M 23.421875 -8.46875 "/></g></g></g><g fill="#7ed957" fill-opacity="1"><g transform="translate(159.368995, 215.021569)"><g><path d="M 30.109375 -23.671875 C 31.828125 -22.484375 33.195312 -20.957031 34.21875 -19.09375 C 35.238281 -17.238281 35.75 -15.1875 35.75 -12.9375 C 35.75 -11.132812 35.398438 -9.445312 34.703125 -7.875 C 34.015625 -6.300781 33.078125 -4.929688 31.890625 -3.765625 C 30.703125 -2.609375 29.320312 -1.691406 27.75 -1.015625 C 26.175781 -0.335938 24.488281 0 22.6875 0 L 2.9375 0 L 2.9375 -43.484375 L 22.078125 -43.484375 C 23.710938 -43.484375 25.242188 -43.164062 26.671875 -42.53125 C 28.109375 -41.894531 29.367188 -41.046875 30.453125 -39.984375 C 31.535156 -38.921875 32.382812 -37.671875 33 -36.234375 C 33.613281 -34.804688 33.921875 -33.273438 33.921875 -31.640625 C 33.921875 -29.890625 33.582031 -28.347656 32.90625 -27.015625 C 32.226562 -25.679688 31.296875 -24.566406 30.109375 -23.671875 Z M 12.265625 -27.171875 L 22.078125 -27.171875 C 23.179688 -27.171875 24.117188 -27.554688 24.890625 -28.328125 C 25.671875 -29.109375 26.0625 -30.050781 26.0625 -31.15625 C 26.0625 -32.257812 25.671875 -33.175781 24.890625 -33.90625 C 24.117188 -34.644531 23.179688 -35.015625 22.078125 -35.015625 L 12.265625 -35.015625 Z M 22.6875 -8.40625 C 23.914062 -8.40625 24.957031 -8.925781 25.8125 -9.96875 C 26.675781 -11.007812 27.109375 -12.222656 27.109375 -13.609375 C 27.109375 -15.046875 26.675781 -16.253906 25.8125 -17.234375 C 24.957031 -18.210938 23.914062 -18.703125 22.6875 -18.703125 L 12.265625 -18.703125 L 12.265625 -8.40625 Z M 22.6875 -8.40625 "/></g></g></g></svg>